<?xml version="1.0" standalone="no"?>
<!DOCTYPE svg PUBLIC "-//W3C//DTD SVG 20010904//EN"
 "http://www.w3.org/TR/2001/REC-SVG-20010904/DTD/svg10.dtd">
<svg version="1.0" xmlns="http://www.w3.org/2000/svg"
 width="512.000000pt" height="512.000000pt" viewBox="0 0 512.000000 512.000000"
 preserveAspectRatio="xMidYMid meet">

<g transform="translate(0.000000,512.000000) scale(0.100000,-0.100000)"
fill="#000000" stroke="none">
<path d="M374 5106 c-140 -44 -259 -148 -326 -283 l-43 -86 -3 -2116 c-1
-1164 0 -2126 3 -2139 3 -12 20 -31 38 -42 31 -20 57 -20 1268 -20 l1236 0 5
-92 c4 -73 11 -105 32 -149 31 -66 98 -132 162 -159 44 -19 77 -20 1094 -20
1017 0 1050 1 1094 20 63 27 127 89 159 154 l27 55 0 1370 c0 1336 0 1370 -20
1415 -27 64 -92 131 -159 163 l-56 28 -622 3 -623 3 0 414 0 415 370 0 c395 0
412 2 455 50 19 21 20 38 23 285 3 300 -4 351 -65 467 -52 99 -134 178 -240
230 l-86 43 -1841 2 c-1468 1 -1849 -1 -1882 -11z m3102 -244 c-36 -57 -55
-123 -66 -225 -5 -51 -10 -392 -10 -759 l0 -667 -302 -3 c-286 -3 -306 -5
-350 -25 -67 -31 -133 -96 -165 -162 l-28 -56 -3 -1158 -2 -1157 -1165 0
-1165 0 2 2003 3 2002 26 56 c43 91 121 156 216 178 21 5 703 9 1536 10 l1497
1 -24 -38z m600 4 c66 -30 120 -85 153 -155 24 -53 26 -66 29 -243 l4 -188
-311 0 -311 0 0 183 c0 215 8 251 77 327 96 107 230 135 359 76z m791 -1919
l28 -27 0 -1320 0 -1320 -28 -27 -27 -28 -1000 0 -1000 0 -27 28 -28 27 0
1319 c0 1305 0 1319 20 1341 11 12 29 26 40 31 11 4 464 7 1007 6 l988 -2 27
-28z"/>
<path d="M693 4154 c-33 -16 -63 -66 -63 -104 0 -11 7 -34 15 -50 33 -63 -34
-60 1170 -60 1223 0 1139 -5 1169 71 20 49 10 92 -30 130 l-26 24 -1101 2
c-986 2 -1105 1 -1134 -13z"/>
<path d="M705 3626 c-50 -22 -70 -52 -70 -106 0 -57 28 -94 84 -111 24 -7 397
-9 1118 -7 1079 3 1082 3 1110 24 15 11 34 39 42 61 13 36 12 43 -5 79 -39 79
46 74 -1169 74 -874 -1 -1086 -3 -1110 -14z"/>
<path d="M688 3084 c-31 -16 -58 -61 -58 -94 0 -39 31 -88 65 -104 30 -15 117
-16 814 -14 l779 3 26 24 c40 38 50 81 30 130 -30 75 19 71 -851 71 -669 -1
-782 -3 -805 -16z"/>
<path d="M693 2554 c-33 -16 -63 -66 -63 -104 0 -11 7 -34 15 -50 32 -62 -2
-60 850 -60 868 0 819 -4 849 71 20 49 10 92 -30 130 l-26 24 -781 2 c-695 2
-786 1 -814 -13z"/>
<path d="M705 2026 c-50 -22 -70 -52 -70 -106 0 -57 28 -94 84 -111 24 -6 295
-9 798 -7 755 3 762 3 790 24 15 11 34 39 42 61 13 36 12 43 -5 79 -38 78 7
74 -849 74 -608 -1 -766 -3 -790 -14z"/>
<path d="M688 1484 c-31 -16 -58 -61 -58 -94 0 -39 31 -88 65 -104 30 -15 117
-16 814 -14 l779 3 26 24 c40 38 50 81 30 130 -30 75 19 71 -851 71 -669 -1
-782 -3 -805 -16z"/>
<path d="M3014 2746 l-34 -34 0 -472 0 -472 34 -34 34 -34 792 0 792 0 34 34
34 34 0 472 0 472 -34 34 -34 34 -792 0 -792 0 -34 -34z m1456 -506 l0 -310
-630 0 -630 0 0 310 0 310 630 0 630 0 0 -310z"/>
<path d="M3014 1466 c-39 -39 -45 -86 -19 -136 26 -50 59 -60 205 -60 146 0
179 10 205 60 26 50 20 97 -19 136 l-34 34 -152 0 -152 0 -34 -34z"/>
<path d="M3654 1466 c-39 -39 -45 -86 -19 -136 26 -50 59 -60 205 -60 146 0
179 10 205 60 26 50 20 97 -19 136 l-34 34 -152 0 -152 0 -34 -34z"/>
<path d="M4294 1466 c-39 -39 -45 -86 -19 -136 26 -50 59 -60 205 -60 146 0
179 10 205 60 26 50 20 97 -19 136 l-34 34 -152 0 -152 0 -34 -34z"/>
<path d="M3070 1074 c-62 -23 -90 -58 -90 -114 0 -89 57 -120 220 -120 128 0
182 16 205 61 29 55 14 124 -34 156 -21 14 -51 18 -156 20 -71 1 -137 0 -145
-3z"/>
<path d="M3710 1074 c-62 -23 -90 -58 -90 -114 0 -89 57 -120 220 -120 128 0
182 16 205 61 29 55 14 124 -34 156 -21 14 -51 18 -156 20 -71 1 -137 0 -145
-3z"/>
<path d="M4350 1074 c-62 -23 -90 -58 -90 -114 0 -89 57 -120 220 -120 128 0
182 16 205 61 29 55 14 124 -34 156 -21 14 -51 18 -156 20 -71 1 -137 0 -145
-3z"/>
<path d="M3038 634 c-35 -18 -58 -62 -58 -110 0 -28 8 -44 34 -70 l34 -34 152
0 152 0 34 34 c26 26 34 42 34 69 0 53 -16 85 -52 107 -29 17 -50 20 -168 20
-100 -1 -142 -5 -162 -16z"/>
<path d="M3678 634 c-35 -18 -58 -62 -58 -110 0 -28 8 -44 34 -70 l34 -34 152
0 152 0 34 34 c26 26 34 42 34 69 0 53 -16 85 -52 107 -29 17 -50 20 -168 20
-100 -1 -142 -5 -162 -16z"/>
<path d="M4318 634 c-35 -18 -58 -62 -58 -110 0 -28 8 -44 34 -70 l34 -34 152
0 152 0 34 34 c26 26 34 42 34 69 0 53 -16 85 -52 107 -29 17 -50 20 -168 20
-100 -1 -142 -5 -162 -16z"/>
</g>
</svg>
