<?xml version="1.0" standalone="no"?>
<!DOCTYPE svg PUBLIC "-//W3C//DTD SVG 20010904//EN"
 "http://www.w3.org/TR/2001/REC-SVG-20010904/DTD/svg10.dtd">
<svg version="1.0" xmlns="http://www.w3.org/2000/svg"
 width="512.000000pt" height="512.000000pt" viewBox="0 0 512.000000 512.000000"
 preserveAspectRatio="xMidYMid meet">

<g transform="translate(0.000000,512.000000) scale(0.100000,-0.100000)"
fill="#000000" stroke="none">
<path d="M2859 4541 c-24 -25 -29 -37 -29 -80 l0 -51 -673 0 c-760 0 -735 2
-812 -75 -62 -61 -75 -111 -75 -276 l0 -137 -56 -18 c-72 -23 -159 -79 -208
-135 -52 -60 -105 -172 -118 -253 -19 -117 24 -270 100 -357 l31 -35 -90 -22
c-50 -12 -115 -34 -144 -48 -108 -51 -190 -149 -221 -268 -20 -73 -19 -953 0
-1009 36 -100 122 -157 238 -157 l67 0 3 -428 c3 -409 4 -429 24 -472 45 -98
148 -160 264 -160 63 0 148 26 181 56 18 16 20 16 38 0 33 -30 118 -56 181
-56 117 0 219 61 264 159 19 41 21 67 24 259 l3 212 -30 30 c-40 40 -82 40
-122 1 l-29 -29 0 -197 0 -197 -29 -29 c-25 -25 -37 -29 -81 -29 -44 0 -56 4
-81 29 l-29 29 0 547 0 547 -29 29 c-40 39 -82 39 -122 0 l-29 -29 0 -547 0
-547 -29 -29 c-25 -25 -37 -29 -81 -29 -44 0 -56 4 -81 29 l-29 29 0 916 0
915 -24 28 c-34 39 -98 39 -132 0 l-24 -28 0 -398 c0 -373 -1 -399 -18 -414
-25 -23 -85 -22 -106 2 -15 17 -17 58 -14 477 l3 459 27 45 c44 76 91 101 266
141 116 27 383 37 508 18 49 -7 96 -12 104 -10 8 1 190 83 403 182 423 197
424 197 454 134 31 -64 32 -64 -398 -263 -217 -101 -402 -193 -411 -204 -17
-19 -18 -59 -18 -525 l0 -505 29 -29 c40 -39 82 -39 122 0 l29 29 0 131 0 131
435 0 435 0 0 -348 0 -349 -369 -322 c-278 -242 -371 -329 -376 -350 -16 -73
60 -136 125 -101 10 5 152 127 316 270 l299 260 5 -126 c5 -123 6 -126 33
-150 36 -31 78 -31 114 0 27 24 28 27 33 150 l5 126 305 -265 c168 -146 316
-268 329 -272 59 -15 118 40 107 101 -6 32 -47 71 -376 358 l-370 321 0 349 0
348 728 0 c821 0 790 -3 867 75 66 65 75 106 75 333 l0 194 -29 29 c-40 39
-82 39 -122 0 l-29 -29 0 -189 c0 -185 -1 -190 -23 -211 l-23 -22 -1247 0
-1247 0 2 240 3 241 343 159 c189 88 347 160 351 160 4 0 26 16 50 36 60 52
85 105 85 184 0 111 -65 206 -168 245 -70 27 -127 16 -280 -56 -276 -130 -466
-218 -466 -215 0 2 11 29 25 59 37 86 50 173 37 252 -12 76 -57 179 -104 238
-46 58 -137 121 -213 148 l-65 24 0 131 c0 124 1 132 23 152 l23 22 1425 0
1426 0 21 -23 c22 -23 22 -24 22 -511 l0 -488 29 -29 c40 -39 82 -39 122 0
l29 29 0 494 c0 560 0 558 -75 633 -77 77 -52 75 -812 75 l-673 0 0 51 c0 43
-5 55 -29 80 -20 20 -39 29 -61 29 -22 0 -41 -9 -61 -29z m-1377 -819 c59 -26
118 -85 148 -148 32 -66 34 -169 3 -235 -29 -64 -85 -123 -146 -153 -73 -37
-181 -37 -254 0 -165 82 -219 282 -117 431 82 120 234 164 366 105z"/>
<path d="M2099 3901 c-20 -20 -29 -39 -29 -61 0 -22 9 -41 29 -61 l29 -29 792
0 792 0 29 29 c39 40 39 82 0 122 l-29 29 -792 0 -792 0 -29 -29z"/>
<path d="M2769 3581 c-20 -20 -29 -39 -29 -61 0 -22 9 -41 29 -61 l29 -29 617
0 617 0 29 29 c20 20 29 39 29 61 0 22 -9 41 -29 61 l-29 29 -617 0 -617 0
-29 -29z"/>
<path d="M2859 3261 c-20 -20 -29 -39 -29 -61 0 -22 9 -41 29 -61 l29 -29 572
0 572 0 29 29 c39 40 39 82 0 122 l-29 29 -572 0 -572 0 -29 -29z"/>
<path d="M4419 2981 c-20 -20 -29 -39 -29 -61 0 -43 47 -90 90 -90 22 0 41 9
61 29 20 20 29 39 29 61 0 22 -9 41 -29 61 -20 20 -39 29 -61 29 -22 0 -41 -9
-61 -29z"/>
<path d="M2699 2941 c-20 -20 -29 -39 -29 -61 0 -22 9 -41 29 -61 l29 -29 652
0 652 0 29 29 c39 40 39 82 0 122 l-29 29 -652 0 -652 0 -29 -29z"/>
<path d="M1699 1541 c-20 -20 -29 -39 -29 -61 0 -43 47 -90 90 -90 43 0 90 47
90 90 0 22 -9 41 -29 61 -20 20 -39 29 -61 29 -22 0 -41 -9 -61 -29z"/>
</g>
</svg>
