<?xml version="1.0" standalone="no"?>
<!DOCTYPE svg PUBLIC "-//W3C//DTD SVG 20010904//EN"
 "http://www.w3.org/TR/2001/REC-SVG-20010904/DTD/svg10.dtd">
<svg version="1.0" xmlns="http://www.w3.org/2000/svg"
 width="512.000000pt" height="512.000000pt" viewBox="0 0 512.000000 512.000000"
 preserveAspectRatio="xMidYMid meet"  fill-rule="evenodd"
    clip-rule="evenodd">

<g transform="translate(0.000000,512.000000) scale(0.100000,-0.100000)"
fill="#ffffff" stroke="none">
<path d="M2370 5113 c-379 -36 -661 -116 -980 -278 -378 -193 -717 -497 -965
-865 -162 -242 -312 -598 -369 -880 -43 -212 -51 -295 -51 -530 0 -312 34
-526 126 -805 53 -159 173 -417 255 -545 147 -231 399 -512 594 -662 379 -292
783 -461 1265 -530 120 -17 501 -17 633 1 114 15 144 30 161 84 10 28 7 44
-14 103 -45 124 -92 140 -222 74 -43 -22 -90 -43 -105 -46 l-28 -6 0 691 c0
744 0 739 -51 775 -13 9 -39 16 -59 16 -72 0 -110 -55 -110 -160 l0 -60 -69 0
c-145 0 -418 -27 -625 -61 -65 -11 -120 -19 -121 -17 -8 8 -66 289 -84 403
-28 174 -51 426 -51 547 l0 98 550 0 550 0 32 29 33 29 3 555 2 554 143 7
c175 8 378 29 544 56 69 11 127 19 128 18 6 -6 55 -237 74 -348 31 -174 51
-358 58 -532 l6 -158 -117 0 c-67 0 -127 -5 -139 -11 -76 -39 -76 -149 0 -188
15 -8 240 -11 777 -11 l756 0 0 -42 c0 -24 -5 -90 -11 -148 -11 -94 -10 -109
5 -139 33 -64 123 -74 172 -20 25 28 42 147 50 359 16 429 -71 835 -262 1219
-124 250 -263 447 -458 648 -216 224 -428 378 -711 518 -296 146 -572 225
-900 255 -102 9 -333 11 -415 3z m80 -749 l0 -526 -122 7 c-237 13 -600 57
-621 75 -12 10 56 188 129 340 144 297 312 496 498 590 129 66 116 121 116
-486z m302 502 c127 -52 284 -197 399 -369 104 -155 285 -555 262 -578 -18
-17 -375 -60 -630 -75 l-113 -6 0 526 c0 414 3 526 13 526 6 0 38 -11 69 -24z
m596 -98 c304 -107 590 -283 823 -506 44 -41 79 -78 79 -82 0 -11 -192 -91
-320 -134 -102 -34 -293 -88 -295 -83 0 1 -22 61 -49 132 -96 260 -227 499
-364 662 l-61 72 51 -16 c29 -8 90 -28 136 -45z m-1455 -15 c-128 -151 -267
-406 -359 -658 -27 -71 -49 -131 -50 -133 -2 -5 -307 86 -379 113 -118 45
-235 97 -235 105 0 12 155 155 240 223 143 113 330 226 495 299 88 40 304 117
328 117 13 1 2 -17 -40 -66z m-1057 -797 c139 -62 336 -132 482 -171 56 -15
102 -33 102 -39 0 -6 -11 -61 -25 -121 -52 -231 -87 -486 -105 -750 -5 -82
-10 -162 -10 -177 l0 -28 -530 0 -530 0 0 48 c0 26 7 94 14 152 51 378 211
774 433 1074 26 36 48 66 48 66 0 0 54 -24 121 -54z m3585 32 c37 -44 147
-214 198 -305 96 -174 187 -415 230 -610 24 -107 51 -298 51 -358 l0 -45 -529
0 -529 0 -6 113 c-18 297 -50 554 -102 793 -18 89 -34 166 -34 171 0 5 39 20
88 33 136 36 361 116 490 174 64 30 119 54 120 55 2 1 12 -9 23 -21z m-2593
-307 c181 -27 311 -39 481 -47 l141 -7 0 -479 0 -478 -477 0 -476 0 6 158 c10
246 39 460 99 740 l31 144 29 -6 c16 -3 91 -15 166 -25z m-548 -1249 c0 -67
22 -358 36 -472 19 -164 49 -340 80 -468 13 -57 24 -109 24 -116 0 -7 -43 -24
-102 -41 -154 -42 -348 -111 -481 -171 l-120 -53 -18 22 c-81 96 -225 342
-293 499 -105 248 -186 585 -186 780 l0 48 530 0 530 0 0 -28z m1170 -1677 c0
-340 -3 -525 -10 -525 -5 0 -32 8 -59 19 -130 49 -295 199 -411 373 -105 157
-286 556 -263 579 20 20 474 71 686 77 l57 2 0 -525z m-915 268 c95 -259 225
-495 364 -660 33 -40 55 -70 48 -68 -345 107 -538 202 -792 390 -107 80 -285
239 -285 255 0 8 168 81 275 119 51 19 320 99 335 100 3 0 28 -61 55 -136z"/>
<path d="M2878 2284 c-29 -15 -58 -61 -58 -91 0 -9 156 -484 346 -1055 313
-940 348 -1040 375 -1063 36 -30 81 -32 124 -7 27 17 48 65 216 502 l186 483
464 178 c255 98 475 184 487 191 54 28 67 108 27 157 -23 27 -123 62 -1063
375 -571 190 -1046 346 -1057 346 -11 -1 -32 -7 -47 -16z m1006 -524 c468
-156 754 -256 745 -260 -8 -5 -151 -61 -319 -125 -400 -153 -398 -152 -416
-186 -8 -16 -71 -176 -140 -356 -69 -181 -129 -334 -134 -342 -4 -9 -104 277
-260 745 -139 417 -255 765 -258 773 -4 9 0 13 9 9 8 -3 356 -119 773 -258z"/>
</g>
</svg>
